PathFileType  4	(X/Y/Z) C:\Users\antoi\Documents\MyRepositories\mobilecap\ResultsAnalysis
DataRate	CameraRate	NumFrames	NumMarkers	Units	OrigDataRate	OrigDataStartFrame	OrigNumFrames
100.0	100.0	4	51	mm	100.0	497	662
Frame#	Time	r_knee			r_shank_antsup			r_ankle			r_calc			r_5meta			r_toe			L_knee			L_shank_antsup			L_ankle			L_calc			L_5meta			L_toe			r_sh2			r_sh3			r_sh4			L_sh2			L_sh3			r_thigh1			r_thigh2			r_thigh3			r_thigh4			r_thigh5			L_thigh1			L_thigh2			L_thigh3			L_thigh4			r.ASIS			r.PSIS			L.ASIS			L.PSIS			C7			R_Shoulder			L_Shoulder			R_Sternum			L_Sternum			R_humerus			R_elbow_med			R_elbow_lat			R_forearm			R_wrist_radius			R_wrist_ulna			L_humerus			L_elbow_med			L_elbow_lat			L_forearm			L_wrist_radius			L_wrist_ulna			R_HJC			L_HJC			R_HJC_reg			L_HJC_reg			
		X1	Y1	Z1	X2	Y2	Z2	X3	Y3	Z3	X4	Y4	Z4	X5	Y5	Z5	X6	Y6	Z6	X7	Y7	Z7	X8	Y8	Z8	X9	Y9	Z9	X10	Y10	Z10	X11	Y11	Z11	X12	Y12	Z12	X13	Y13	Z13	X14	Y14	Z14	X15	Y15	Z15	X16	Y16	Z16	X17	Y17	Z17	X18	Y18	Z18	X19	Y19	Z19	X20	Y20	Z20	X21	Y21	Z21	X22	Y22	Z22	X23	Y23	Z23	X24	Y24	Z24	X25	Y25	Z25	X26	Y26	Z26	X27	Y27	Z27	X28	Y28	Z28	X29	Y29	Z29	X30	Y30	Z30	X31	Y31	Z31	X32	Y32	Z32	X33	Y33	Z33	X34	Y34	Z34	X35	Y35	Z35	X36	Y36	Z36	X37	Y37	Z37	X38	Y38	Z38	X39	Y39	Z39	X40	Y40	Z40	X41	Y41	Z41	X42	Y42	Z42	X43	Y43	Z43	X44	Y44	Z44	X45	Y45	Z45	X46	Y46	Z46	X47	Y47	Z47	X48	Y48	Z48	X49	Y49	Z49	X50	Y50	Z50	X51	Y51	Z51	

497	4.96000000	-218.56170	471.14109	-399.94453	-157.71504	405.69336	-402.62446	-301.83256	96.99396	-403.92772	-370.05437	61.92654	-442.80253	-205.77297	47.43341	-356.35167	-154.17642	75.18956	-405.90546	-220.67469	459.20754	-905.37238	-172.09272	376.80059	-921.01763	-317.49047	98.81179	-900.25583	-385.27955	62.18951	-857.38263	-216.52680	44.06784	-952.27799	-171.49543	68.36610	-901.57856	-208.19162	302.61980	-381.91733	-231.17497	435.66285	-382.96006	-275.95790	332.84114	-378.18779	-255.48018	409.26672	-915.40200	-291.73127	291.17977	-924.41508	-519.11528	556.15190	-459.88723	-409.70595	545.67840	-439.59678	-399.67397	488.32655	-405.37212	-536.70173	447.57524	-437.23273	-420.13094	436.44970	-416.90851	-484.23961	511.78253	-893.08682	-347.71095	514.86032	-902.83217	-484.29061	398.81704	-862.03061	-344.41036	407.96566	-878.14475	-515.84131	564.90844	-527.41006	-687.92800	597.64521	-613.48499	-502.13984	554.31824	-785.07498	-692.31127	601.12068	-707.94481	-481.67485	978.68233	-666.46926	-369.66030	965.49691	-517.61882	-393.84934	961.81684	-823.70085	-348.70701	908.82759	-643.85411	-341.09623	915.26620	-689.30825	-324.92519	894.28559	-418.49641	-278.97723	686.91832	-347.82423	-248.20049	750.18303	-303.73563	-165.77656	782.52611	-412.67971	-97.28261	802.37973	-512.91234	-70.25413	780.08845	-508.90387	-357.80585	896.73164	-914.40176	-294.17491	671.87333	-980.00656	-282.35716	745.15158	-1026.87343	-221.83921	784.13217	-942.35876	-130.34180	819.47616	-838.35159	-101.85419	811.70054	-856.45453	-582.35866	482.25658	-554.10239	-577.58180	480.12770	-760.50574	-573.54801	478.54835	-563.54563	-581.44323	484.80957	-733.68972	
498	4.97000000	-219.27139	471.98290	-400.08469	-159.66652	406.74180	-403.51435	-302.15494	97.17721	-404.15412	-370.21571	61.92527	-442.87056	-205.76123	47.85070	-356.50924	-154.31155	75.55035	-406.36555	-222.53793	460.10844	-905.91216	-173.95427	378.10661	-921.52073	-317.97776	99.11562	-900.51710	-385.48686	62.16012	-857.30537	-216.61929	44.17601	-952.14986	-171.68790	68.76420	-901.72581	-209.72496	303.52205	-382.50284	-233.12395	436.47300	-383.66019	-277.55281	333.32878	-378.81420	-257.51334	410.14283	-915.53783	-293.13802	292.12043	-925.04111	-518.41011	558.54146	-460.78354	-409.37573	547.83596	-439.60261	-399.88688	490.31386	-405.28857	-536.94975	450.45640	-438.60141	-420.72350	438.65641	-416.85705	-485.42541	513.68059	-893.42230	-349.06601	516.03902	-904.08031	-485.81305	401.05779	-860.78445	-346.00291	409.38121	-877.82047	-518.04047	567.89612	-527.13647	-690.18121	599.12578	-614.02923	-504.38478	555.94421	-786.02374	-694.57028	602.01406	-708.92759	-483.67971	981.70046	-666.37576	-373.83461	966.92818	-515.73305	-397.02210	963.62678	-824.53379	-350.33146	911.10255	-643.83079	-343.63976	916.35088	-687.42143	-331.57265	892.98460	-416.13263	-287.38328	683.53633	-349.16168	-256.62996	746.04366	-304.06649	-173.34059	779.26111	-411.97933	-103.26339	799.93236	-510.90156	-76.75035	777.00464	-507.53548	-362.29374	896.80467	-915.54591	-299.92254	669.96562	-977.95338	-287.28813	742.67322	-1025.45932	-226.99931	781.83094	-940.74961	-134.66392	817.59308	-837.89745	-106.28371	809.08234	-855.70795	-584.06867	484.69578	-554.09941	-579.21121	481.42777	-760.48760	-575.34059	480.65979	-563.00281	-583.24968	485.86337	-734.02602	
499	4.98000000	-220.51543	472.69186	-400.58749	-161.76688	407.85647	-404.38170	-302.74770	97.47008	-404.36381	-370.47643	61.86130	-443.01413	-205.92280	48.21047	-356.67187	-154.64463	76.10116	-406.53862	-224.41050	461.15774	-906.42308	-175.87914	379.43817	-921.75774	-318.42854	99.68442	-901.05896	-385.66730	62.14924	-857.28546	-216.70644	44.08858	-951.78124	-171.85215	69.05972	-901.84980	-211.35335	304.55718	-383.03380	-235.27114	437.40785	-384.69505	-279.31199	333.88941	-379.47534	-259.55519	411.05863	-915.82637	-294.53548	293.12514	-925.72393	-518.18871	561.01839	-461.79815	-409.46494	550.23115	-439.91604	-400.48706	492.59124	-405.32902	-537.66847	453.80865	-439.16292	-421.80561	441.15159	-417.24759	-486.60781	516.73872	-893.61158	-350.14843	517.63308	-905.05624	-487.86859	404.54520	-860.32967	-347.95372	411.06251	-877.65638	-519.45121	572.27974	-527.74215	-691.96986	602.57583	-614.59283	-506.98508	559.50105	-786.91429	-696.73149	605.07514	-708.88356	-484.10343	987.18025	-666.61052	-376.26278	968.19571	-514.59973	-398.05986	965.36424	-824.46469	-350.64387	914.30108	-643.74414	-346.49613	916.37148	-686.35320	-337.58778	892.41589	-413.88224	-296.49931	680.85921	-350.91468	-265.21442	742.08338	-304.39005	-180.84701	776.01243	-410.97522	-108.96482	797.29988	-508.58982	-83.17317	773.52599	-505.97823	-365.38089	897.80534	-915.94316	-306.05320	669.04740	-975.85203	-292.32383	741.02544	-1024.15421	-232.16380	779.85973	-939.20828	-138.20418	815.60990	-837.45879	-110.08747	806.27206	-855.20128	-585.28256	488.74679	-554.33480	-581.25157	484.76266	-760.72944	-576.63597	484.67262	-563.09776	-585.28027	489.20844	-734.27855	
500	4.99000000	-222.14600	473.40364	-401.43793	-163.69792	409.05124	-405.11956	-303.47937	97.94531	-404.42015	-370.77562	61.74800	-443.15639	-206.24040	48.49785	-356.80383	-155.00117	76.58328	-406.48227	-226.29845	462.15890	-906.66765	-177.67513	380.69855	-921.87319	-318.83574	100.18734	-901.42967	-385.81584	62.12927	-857.35294	-216.80469	43.84029	-951.27259	-171.99207	69.20313	-901.78452	-212.82743	305.66520	-383.43683	-237.39831	438.29755	-385.92712	-280.94349	334.49468	-380.12495	-261.44745	411.85015	-915.99707	-295.91687	293.77450	-925.86549	-518.63572	563.55430	-462.91054	-410.16486	552.54154	-440.52832	-401.49971	494.90504	-405.61704	-539.05098	457.13349	-439.02014	-423.27097	443.60380	-417.80948	-488.39975	520.50426	-895.51301	-351.27602	519.29853	-905.50561	-490.15901	408.19431	-860.38646	-350.09934	412.74169	-877.65545	-520.41040	576.56919	-529.02173	-693.66984	606.39367	-614.95026	-510.21877	563.75428	-787.82950	-699.14134	608.79123	-707.94652	-484.29720	992.43208	-666.74493	-377.26638	968.75672	-513.99720	-397.74567	966.66602	-823.63666	-351.35937	916.84532	-642.92931	-349.33717	916.08981	-686.13757	-342.68729	892.26617	-412.29080	-305.90338	679.11403	-352.61511	-273.74755	738.64819	-304.23102	-187.82412	772.83844	-409.56440	-114.40475	794.56110	-506.30396	-89.35268	769.89175	-504.24241	-367.06955	899.39486	-915.27998	-312.22931	669.20705	-973.92707	-297.16443	740.47563	-1023.07386	-236.83021	778.48667	-938.20684	-140.98906	813.61849	-836.84540	-113.20788	803.44189	-854.73640	-586.24531	492.86930	-554.84687	-583.90703	488.78691	-761.26396	-577.70122	488.97987	-563.77909	-587.75018	493.38342	-734.58179	
